<svg id="Layer_1" data-name="Layer 1" xmlns="http://www.w3.org/2000/svg" viewBox="0 0 859.79 908.36"><defs><style>.cls-1{fill:#fff;}</style></defs><title>clock</title><path class="cls-1" d="M463.65,35.93h10.5v98H462.39V51.33l-18.76,15-6.86-9Z" transform="translate(-71.57 -34.25)"/><path class="cls-1" d="M532.67,88.29c3.64-4.76,12.46-14.56,12.46-25.34,0-9.38-5.88-17.78-18.06-17.78-15.54,0-19.32,15-19.32,15l-10.08-3.78s5.6-22.12,29.4-22.12c18.06,0,29.82,12.46,29.82,28.7,0,13.16-8.12,22.4-10.22,25.34l-26,34.72h37v10.92H498.23Z" transform="translate(-71.57 -34.25)"/><path class="cls-1" d="M710.89,101.93h10.5v98H709.63v-82.6l-18.76,15-6.86-9Z" transform="translate(-71.57 -34.25)"/><path class="cls-1" d="M852.32,335.29c3.64-4.76,12.46-14.56,12.46-25.34,0-9.38-5.88-17.78-18.06-17.78-15.54,0-19.32,15-19.32,15l-10.08-3.78s5.6-22.12,29.4-22.12c18.06,0,29.82,12.46,29.82,28.7,0,13.16-8.12,22.4-10.22,25.34l-26,34.72h37v10.92H817.88Z" transform="translate(-71.57 -34.25)"/><path class="cls-1" d="M899.72,463.17c-14,0-18.34,12.74-18.34,12.74l-10.08-4.48s7-19.18,28.42-19.18c16.1,0,29.26,12,29.26,27.58,0,16-12,21.28-12,21.28s14.42,3.78,14.42,23.8c0,17.78-14,28.7-31.92,28.7-25.2,0-31.5-22.26-31.5-22.26l10.36-4.76s4.2,16.1,21.14,16.1c12.6,0,20.16-8.4,20.16-17.78,0-10.92-6.72-17.64-20.72-17.64h-4.62V496.49h2.94c11.06,0,20-5.46,20-16.66C917.22,471.15,910.08,463.17,899.72,463.17Z" transform="translate(-71.57 -34.25)"/><path class="cls-1" d="M825.88,624.93h10.36v61.32h12.18v10.92H836.24v25.76H824.76V697.17h-50Zm-1.12,61.32v-43.4l-30.38,43.4Z" transform="translate(-71.57 -34.25)"/><path class="cls-1" d="M710.05,876.61c-24.08,0-31.78-21.14-31.78-21.14L688.49,850s5.46,15.68,21.56,15.68c11.48,0,21.56-7.56,21.56-22,0-14.7-9.8-22-21.84-22-13.58,0-26.6,10.92-26.6,10.92V776.93h58.1v10.92h-46.9v26.88a39.45,39.45,0,0,1,18.06-4.06c15.82,0,30.94,10.64,30.94,33C743.37,865.69,727,876.61,710.05,876.61Z" transform="translate(-71.57 -34.25)"/><path class="cls-1" d="M493.12,879.33a17.81,17.81,0,0,1,7-1.4c20.58,0,32.06,15.54,32.06,32.06s-11.48,32.62-32.06,32.62-32.06-16.24-32.06-32.34a38.94,38.94,0,0,1,4.76-17.36c2-3.64,31.92-53.34,31.92-53.34l9.52,6.16ZM479.82,910c0,11.48,7.7,21.7,20.3,21.7s20.3-10.22,20.3-21.7-8-21.14-20.3-21.14S479.82,898.51,479.82,910Z" transform="translate(-71.57 -34.25)"/><path class="cls-1" d="M240.86,766.93H306.1L254,867.45l-9.94-5.32,43.54-84.28H240.86Z" transform="translate(-71.57 -34.25)"/><path class="cls-1" d="M166.42,639.57c0,8-4.34,16.38-10.92,20.3,8.82,4.76,14.42,13.86,14.42,25.06,0,16-12.32,29.68-31.08,29.68s-31.08-13.72-31.08-29.68c0-11.2,5.6-20.3,14.42-25.06-6.58-3.92-10.92-12.32-10.92-20.3,0-12.88,10.08-26.32,27.58-26.32S166.42,626.69,166.42,639.57Zm-8.26,45.36c0-10.08-7.28-19.46-19.32-19.46s-19.32,9.38-19.32,19.46a19.33,19.33,0,0,0,38.64,0Zm-3.5-45.22c0-9.1-7-15.54-15.82-15.54S123,630.61,123,639.71s7,15.54,15.82,15.54S154.66,648.81,154.66,639.71Z" transform="translate(-71.57 -34.25)"/><path class="cls-1" d="M111.7,515s-2.1,1.68-7.14,1.68c-20.58,0-32.06-15.82-32.06-31.92S84,452.25,104.56,452.25s32.06,16.38,32.06,32.48A33.84,33.84,0,0,1,132.7,500c-2,4.06-32.62,54.88-32.62,54.88l-9.52-6.16Zm13.16-30.24c0-11.48-7.7-21.56-20.3-21.56s-20.3,10.08-20.3,21.56,8,21,20.3,21S124.86,496.21,124.86,484.73Z" transform="translate(-71.57 -34.25)"/><path class="cls-1" d="M98.45,282.93H109v98H97.19v-82.6l-18.76,15-6.86-9Z" transform="translate(-71.57 -34.25)"/><path class="cls-1" d="M202.75,331.93c0,26.18-10.5,50.68-35.42,50.68s-35.7-24.5-35.7-50.68,10.78-50.68,35.7-50.68S202.75,305.75,202.75,331.93Zm-11.76,0c0-19.18-6.3-39.76-23.66-39.76s-23.94,20.58-23.94,39.76,6.58,39.76,23.94,39.76S191,351.11,191,331.93Z" transform="translate(-71.57 -34.25)"/><path class="cls-1" d="M242.54,101.93H253v98H241.28v-82.6l-18.76,15-6.86-9Z" transform="translate(-71.57 -34.25)"/><path class="cls-1" d="M299.24,101.93h10.5v98H298v-82.6l-18.76,15-6.86-9Z" transform="translate(-71.57 -34.25)"/></svg>